<svg id="Layer_1" data-name="Layer 1" xmlns="http://www.w3.org/2000/svg" viewBox="0 0 54.89 54.89"><defs><style>.cls-1{fill:#212121;}</style></defs><path class="cls-1" d="M47.5,353.9H7.4A7.39,7.39,0,0,0,0,361.29v40.1a7.4,7.4,0,0,0,7.4,7.4H27.18l0-19.62h-5.1a1.2,1.2,0,0,1-1.2-1.2l0-6.32a1.2,1.2,0,0,1,1.2-1.21h5.09v-6.11c0-7.09,4.33-10.95,10.65-10.95H43a1.21,1.21,0,0,1,1.2,1.21v5.33a1.2,1.2,0,0,1-1.2,1.2H39.84c-3.44,0-4.11,1.64-4.11,4v5.28h7.56a1.2,1.2,0,0,1,1.19,1.35l-.75,6.32a1.19,1.19,0,0,1-1.19,1.06H35.76l0,19.62H47.5a7.39,7.39,0,0,0,7.39-7.4v-40.1A7.39,7.39,0,0,0,47.5,353.9Z" transform="translate(0 -353.9)"/></svg>
