<svg id="Lag_1" data-name="Lag 1" xmlns="http://www.w3.org/2000/svg" viewBox="0 0 365.79 151.73"><defs><style>.cls-1{fill:#454444;}</style></defs><path class="cls-1" d="M19.14,138.17H18c0-.29-.07-.63-.1-1a4.71,4.71,0,0,0-.1-.86.83.83,0,0,0-.31-.46,2.1,2.1,0,0,0-.78-.28,9.45,9.45,0,0,0-1.48-.09H13.13v6.4a5.25,5.25,0,0,0,.06.94.78.78,0,0,0,.29.5,1.38,1.38,0,0,0,.74.28,10.34,10.34,0,0,0,1.45.08v.9c-.55,0-1.16,0-1.85,0l-1.88,0-1.85,0c-.7,0-1.33,0-1.88,0v-.9a10.67,10.67,0,0,0,1.47-.08,1.54,1.54,0,0,0,.74-.26.83.83,0,0,0,.28-.51,7.06,7.06,0,0,0,.05-.95V128.93a6.72,6.72,0,0,0-.05-.93.86.86,0,0,0-.28-.51,1.52,1.52,0,0,0-.74-.28,11,11,0,0,0-1.47-.07v-.9H22.58v4.65H21.17v0q-.11-1.49-.21-2.1a1.85,1.85,0,0,0-.41-1,1.56,1.56,0,0,0-.94-.43,13.44,13.44,0,0,0-2-.11H13.13v7.3H15.2a9.38,9.38,0,0,0,1.5-.08,1.41,1.41,0,0,0,.78-.33,1.37,1.37,0,0,0,.39-.78,8.45,8.45,0,0,0,.1-1.53h1.17Z" transform="translate(-8.21 -125.84)"/><path class="cls-1" d="M29.49,144.21a6.21,6.21,0,0,1-2.78-1.68,6.82,6.82,0,0,1-1.5-2.91,20.27,20.27,0,0,1,0-8.68A6.81,6.81,0,0,1,26.7,128a6,6,0,0,1,2.77-1.66,15.06,15.06,0,0,1,4.32-.53,15.06,15.06,0,0,1,4.32.53A6,6,0,0,1,40.88,128a6.81,6.81,0,0,1,1.49,2.91,17.39,17.39,0,0,1,.47,4.34,19,19,0,0,1-.43,4.35,6.59,6.59,0,0,1-1.43,2.9,5.85,5.85,0,0,1-2.75,1.68,15.27,15.27,0,0,1-4.44.54A14.68,14.68,0,0,1,29.49,144.21Zm1.13-16.77a4.86,4.86,0,0,0-2,1.85,7.87,7.87,0,0,0-.95,2.66,20.73,20.73,0,0,0,0,6.67,7.82,7.82,0,0,0,.95,2.65,4.91,4.91,0,0,0,2,1.87,6.55,6.55,0,0,0,3.17.69,6.55,6.55,0,0,0,3.17-.69,5,5,0,0,0,2-1.85,7.8,7.8,0,0,0,.95-2.66,18.94,18.94,0,0,0,.27-3.35,18.7,18.7,0,0,0-.27-3.33,7.87,7.87,0,0,0-.95-2.66A4.94,4.94,0,0,0,37,127.44a6.7,6.7,0,0,0-3.19-.67A6.67,6.67,0,0,0,30.62,127.44Z" transform="translate(-8.21 -125.84)"/><path class="cls-1" d="M60.87,130.89H59.55a18.64,18.64,0,0,0-.43-2.13,1.83,1.83,0,0,0-.69-1,3.22,3.22,0,0,0-1.42-.43,27.86,27.86,0,0,0-2.88-.11v14.6a3.37,3.37,0,0,0,.12,1,1,1,0,0,0,.4.53,1.62,1.62,0,0,0,.74.21c.3,0,.78,0,1.41,0v.9c-.6,0-1.24,0-1.93,0l-1.93,0-1.93,0c-.69,0-1.33,0-1.93,0v-.9c.63,0,1.1,0,1.41,0a1.62,1.62,0,0,0,.74-.21,1,1,0,0,0,.4-.53,3.37,3.37,0,0,0,.12-1v-14.6a27.51,27.51,0,0,0-2.84.11,3.22,3.22,0,0,0-1.45.45,1.87,1.87,0,0,0-.71,1,14,14,0,0,0-.42,2.1H45v-4.65H60.87Z" transform="translate(-8.21 -125.84)"/><path class="cls-1" d="M67.71,144.21a6.21,6.21,0,0,1-2.78-1.68,6.82,6.82,0,0,1-1.5-2.91,20.27,20.27,0,0,1,0-8.68A6.81,6.81,0,0,1,64.92,128a6,6,0,0,1,2.77-1.66,17.87,17.87,0,0,1,8.64,0A6,6,0,0,1,79.1,128a6.81,6.81,0,0,1,1.49,2.91,17.39,17.39,0,0,1,.47,4.34,19,19,0,0,1-.43,4.35,6.59,6.59,0,0,1-1.43,2.9,5.85,5.85,0,0,1-2.75,1.68,15.27,15.27,0,0,1-4.44.54A14.68,14.68,0,0,1,67.71,144.21Zm1.13-16.77a4.86,4.86,0,0,0-2,1.85,7.87,7.87,0,0,0-.95,2.66,20.73,20.73,0,0,0,0,6.67,7.82,7.82,0,0,0,.95,2.65,4.91,4.91,0,0,0,2,1.87,7.63,7.63,0,0,0,6.34,0,5,5,0,0,0,2-1.85,7.8,7.8,0,0,0,1-2.66,18.94,18.94,0,0,0,.27-3.35,18.7,18.7,0,0,0-.27-3.33,7.87,7.87,0,0,0-1-2.66,4.94,4.94,0,0,0-1.94-1.85,7.88,7.88,0,0,0-6.36,0Z" transform="translate(-8.21 -125.84)"/><path class="cls-1" d="M96.72,140.07a6.21,6.21,0,0,0-.07-1.06.73.73,0,0,0-.35-.49,2,2,0,0,0-.87-.22c-.39,0-1-.06-1.89-.06v-.89l2.17,0q1.64,0,2.22,0l1.64,0,1.59,0v.87a6.16,6.16,0,0,0-1.18.13,1.21,1.21,0,0,0-.59.3.9.9,0,0,0-.24.51,5.23,5.23,0,0,0-.05.91v2.46a4,4,0,0,0,.1,1.06A23.44,23.44,0,0,1,92,144.75c-3.08,0-5.29-.76-6.61-2.3s-2-3.88-2-7,.73-5.56,2.18-7.12,3.81-2.38,7.08-2.45a19.42,19.42,0,0,1,3.16.24,28.65,28.65,0,0,1,3.32.79v4.26H97.54a9.82,9.82,0,0,0-.39-2.26,2.69,2.69,0,0,0-.8-1.28,2.9,2.9,0,0,0-1.41-.61,13.1,13.1,0,0,0-2.32-.16,6.65,6.65,0,0,0-3.24.7,5.09,5.09,0,0,0-2,1.9,8.06,8.06,0,0,0-1,2.74,20.42,20.42,0,0,0,0,6.8,6.76,6.76,0,0,0,1,2.56,4.71,4.71,0,0,0,2,1.68,7.73,7.73,0,0,0,3.25.6,8.5,8.5,0,0,0,2-.25,7.64,7.64,0,0,0,2-.78Z" transform="translate(-8.21 -125.84)"/><path class="cls-1" d="M106.92,141.84a5.25,5.25,0,0,0,.06.94.78.78,0,0,0,.29.5,1.42,1.42,0,0,0,.74.28,10.34,10.34,0,0,0,1.45.08v.9c-.54,0-1.16,0-1.85,0l-1.88,0-1.85,0c-.7,0-1.33,0-1.88,0v-.9a10.67,10.67,0,0,0,1.47-.08,1.54,1.54,0,0,0,.74-.26.79.79,0,0,0,.28-.51,5.69,5.69,0,0,0,.05-.95v-13a5.63,5.63,0,0,0-.05-.94.81.81,0,0,0-.28-.5,1.43,1.43,0,0,0-.74-.28,10.67,10.67,0,0,0-1.47-.08v-.9c.55,0,1.18,0,1.88,0s1.31,0,1.85,0l1.67,0,3.33,0a20.46,20.46,0,0,1,2.45.12,4.82,4.82,0,0,1,1.71.52,2.7,2.7,0,0,1,1.15,1.23,5.22,5.22,0,0,1,.41,2.26,4.29,4.29,0,0,1-1.19,3.31,6.17,6.17,0,0,1-3.49,1.35c.17.28.46.72.85,1.32l1.45,2.18c.56.86,1.05,1.58,1.46,2.18s.72,1,.92,1.27l.16.21a5.92,5.92,0,0,0,1,1.1,2.43,2.43,0,0,0,1.35.41v.9c-.28,0-.6,0-1,0l-1,0-1,0c-.37,0-.7,0-1,0-.55-.88-1.14-1.82-1.78-2.82s-1.25-1.94-1.86-2.84-1.16-1.67-1.65-2.3a3.78,3.78,0,0,0-1-1.06,2.92,2.92,0,0,0-.78-.16c-.28,0-.66,0-1.16,0Zm0-7.4.41,0h.86c.9,0,1.66,0,2.27-.09a5.49,5.49,0,0,0,1.66-.45,2.8,2.8,0,0,0,1.21-1.13,4.11,4.11,0,0,0,.45-2.09,3.66,3.66,0,0,0-.88-2.84,4.62,4.62,0,0,0-3-.75c-.44,0-1.1,0-2,0l-1,0Z" transform="translate(-8.21 -125.84)"/><path class="cls-1" d="M130.41,126.24,136,140.76l.05.13a8.5,8.5,0,0,0,.38.93,6.23,6.23,0,0,0,.53.82,2.75,2.75,0,0,0,.86.71,2.58,2.58,0,0,0,1.24.29v.9c-.54,0-1.14,0-1.79,0l-1.83,0-1.82,0q-1,0-1.83,0v-.95l.6,0a4.83,4.83,0,0,0,.74-.13,1.87,1.87,0,0,0,.68-.32.64.64,0,0,0,.28-.55,3.35,3.35,0,0,0-.31-1.19,2.55,2.55,0,0,1-.11-.27l-1.72-4.42h-6.35l-1.64,4.58a5.24,5.24,0,0,0-.17.62,3,3,0,0,0-.07.54.9.9,0,0,0,.59,1,5.18,5.18,0,0,0,1.61.2v.95q-.69,0-1.56,0l-1.56,0-1.56,0q-.87,0-1.56,0v-.95l.42-.06a2.64,2.64,0,0,0,.91-.15,1.85,1.85,0,0,0,.68-.56,3.68,3.68,0,0,0,.46-.83l.65-1.47L123,140l5.69-13.8Zm1.06,9.17-2.64-6.79-2.91,7.06h5.66Z" transform="translate(-8.21 -125.84)"/><path class="cls-1" d="M151.41,138.17h-1.16c0-.29-.07-.63-.11-1a4.09,4.09,0,0,0-.09-.86.8.8,0,0,0-.32-.46,2,2,0,0,0-.78-.28,9.27,9.27,0,0,0-1.48-.09h-2.06v6.4a6.78,6.78,0,0,0,.05.94.83.83,0,0,0,.29.5,1.45,1.45,0,0,0,.74.28,10.51,10.51,0,0,0,1.46.08v.9c-.55,0-1.16,0-1.85,0l-1.88,0-1.85,0c-.71,0-1.33,0-1.88,0v-.9a10.88,10.88,0,0,0,1.47-.08,1.58,1.58,0,0,0,.74-.26.83.83,0,0,0,.28-.51,7.06,7.06,0,0,0,.05-.95V128.93A6.72,6.72,0,0,0,143,128a.86.86,0,0,0-.28-.51,1.57,1.57,0,0,0-.74-.28,11.2,11.2,0,0,0-1.47-.07v-.9h14.36v4.65h-1.4v0q-.1-1.49-.21-2.1a1.85,1.85,0,0,0-.41-1,1.59,1.59,0,0,0-.94-.43,13.44,13.44,0,0,0-2-.11h-4.47v7.3h2.06a9.53,9.53,0,0,0,1.51-.08,1.41,1.41,0,0,0,.78-.33,1.37,1.37,0,0,0,.38-.78,8.27,8.27,0,0,0,.11-1.53h1.16Z" transform="translate(-8.21 -125.84)"/><path class="cls-1" d="M25.44,180.36s.21-.12.45-.37,1.57-1.52,4-3.8l7.23-6.91Q40.74,165.82,50,157a2.05,2.05,0,0,0,.25-.83c0-.6-.39-1-1.16-1.07v-1.66c1.16.06,2.42.09,3.8.09l3.72.08c1.1-.06,2.34-.08,3.72-.08s2.62,0,3.72-.09v2.4a39,39,0,0,0-4.46.62,12.42,12.42,0,0,0-3.1,1.08,16.29,16.29,0,0,0-2.69,1.73q-1.32,1-3.72,3.18l-17.27,16q.73.82,6.61,7,10.91,11.66,16.78,17.45l.58.66a18.93,18.93,0,0,0,4,3.26A10.54,10.54,0,0,0,66,208v2.81q-1.56-.09-3.39-.09c-1.26,0-2.42,0-3.47-.08s-2.17.08-3.39.08-2.42,0-3.47.09l-1-1.33a300.69,300.69,0,0,0-25.87-27.19v20.09c0,2.59.52,4.18,1.57,4.79a5,5,0,0,0,2.19.66,39.27,39.27,0,0,0,4.17.17v2.81c-1.7-.06-3.63-.09-5.78-.09s-4.16,0-5.87-.08-3.64.08-5.79.08-4.16,0-5.87.09V208a38.24,38.24,0,0,0,4.14-.17,5.66,5.66,0,0,0,2.23-.66c1.05-.61,1.57-2.2,1.57-4.79v-40.5q0-3.89-1.57-4.8a4.17,4.17,0,0,0-2.19-.7c-1-.08-2.36-.13-4.18-.13v-2.81c1.71.06,3.67.09,5.87.09s4.08,0,5.79.08,3.66-.08,5.87-.08,4.08,0,5.78-.09v2.81q-4.95,0-6.44.87c-1,.58-1.49,2.17-1.49,4.76Z" transform="translate(-8.21 -125.84)"/><path class="cls-1" d="M102.39,153.58,119.75,199l.16.41a25.87,25.87,0,0,0,1.2,2.89,15.63,15.63,0,0,0,1.66,2.57,8.59,8.59,0,0,0,2.68,2.23,8,8,0,0,0,3.89.91v2.81c-1.71-.06-3.59-.09-5.62-.09s-4,0-5.71-.08-3.61.08-5.7.08-4,0-5.7.09v-3c.55,0,1.17,0,1.86-.08a14.32,14.32,0,0,0,2.31-.41,6,6,0,0,0,2.15-1,2.09,2.09,0,0,0,.87-1.74,10.69,10.69,0,0,0-1-3.72,8.42,8.42,0,0,1-.33-.83l-5.38-13.8H87.27l-5.13,14.3a19.59,19.59,0,0,0-.54,1.94,8,8,0,0,0-.2,1.7c0,1.59.6,2.6,1.81,3a16.41,16.41,0,0,0,5.05.62v3c-1.44-.06-3.06-.09-4.88-.09s-3.44,0-4.88-.08-3.06.08-4.87.08-3.45,0-4.88.09v-3c.27-.05.71-.11,1.32-.16a9,9,0,0,0,2.85-.5A5.45,5.45,0,0,0,75,205.4a11,11,0,0,0,1.45-2.6q.87-1.94,2-4.59l.66-1.48,17.78-43.15Zm3.31,28.68L97.43,161l-9.09,22.07H106Z" transform="translate(-8.21 -125.84)"/><path class="cls-1" d="M148.43,202.35a18.62,18.62,0,0,0,.17,2.93,2.51,2.51,0,0,0,.91,1.57,4.81,4.81,0,0,0,2.31.87,32,32,0,0,0,4.55.25v2.81q-2.56-.09-5.79-.09c-2.2,0-4.16,0-5.87-.08s-3.64.08-5.78.08-4.17,0-5.87.09V208a32.81,32.81,0,0,0,4.58-.25,4.87,4.87,0,0,0,2.32-.83,2.47,2.47,0,0,0,.87-1.57,19.77,19.77,0,0,0,.16-3v-40.5a19,19,0,0,0-.16-2.94,2.63,2.63,0,0,0-.87-1.57,4.65,4.65,0,0,0-2.32-.87,32.81,32.81,0,0,0-4.58-.25v-2.81c1.7.06,3.66.09,5.87.09s4.07,0,5.78.08c.66,0,2.4,0,5.21-.08q7.77-.09,10.41-.09a63.84,63.84,0,0,1,7.65.38,14.86,14.86,0,0,1,5.33,1.61,8.46,8.46,0,0,1,3.6,3.84,16.28,16.28,0,0,1,1.28,7.07q0,6.94-3.72,10.33t-10.91,4.22q.83,1.32,2.68,4.13l4.51,6.82q2.64,4,4.59,6.82t2.85,4l.49.66a19.58,19.58,0,0,0,3.31,3.43,7.76,7.76,0,0,0,4.22,1.28v2.81c-.89-.06-1.88-.09-3-.09s-2.09,0-3-.08-1.87.08-3,.08-2.18,0-3.06.09q-2.57-4.14-5.54-8.8t-5.83-8.89q-2.85-4.22-5.16-7.19c-1.54-2-2.62-3.09-3.22-3.31a9,9,0,0,0-2.44-.49q-1.29-.09-3.6-.09Zm0-23.15c.39.06.81.1,1.28.13s1.37,0,2.69,0c2.81,0,5.16-.1,7.07-.29a15.54,15.54,0,0,0,5.2-1.41,8.48,8.48,0,0,0,3.76-3.51,12.87,12.87,0,0,0,1.41-6.53q0-6.52-2.73-8.88c-1.82-1.58-4.93-2.36-9.34-2.36-1.38,0-3.44.06-6.2.16l-3.14.09Z" transform="translate(-8.21 -125.84)"/><path class="cls-1" d="M187.78,207.8a31.32,31.32,0,0,0,4.58-.25,4.88,4.88,0,0,0,2.32-.82,2.59,2.59,0,0,0,.87-1.57,19.92,19.92,0,0,0,.16-3V161.85a19,19,0,0,0-.16-2.94,2.73,2.73,0,0,0-.87-1.57,4.65,4.65,0,0,0-2.32-.87,32.81,32.81,0,0,0-4.58-.25v-2.81h44.88V168h-4.38v-.16q-.33-4.63-.66-6.57a5.83,5.83,0,0,0-1.28-3,5,5,0,0,0-2.94-1.36,42.14,42.14,0,0,0-6.28-.34h-14v22.82h6.45a32.14,32.14,0,0,0,4.71-.25,4.73,4.73,0,0,0,2.44-1,4.42,4.42,0,0,0,1.2-2.44,27.1,27.1,0,0,0,.33-4.79h3.63v19.83h-3.63c-.12-.88-.23-1.95-.33-3.22a17.3,17.3,0,0,0-.29-2.69,2.44,2.44,0,0,0-1-1.44,5.75,5.75,0,0,0-2.43-.87,28.88,28.88,0,0,0-4.63-.29h-6.45v24.88H218a22.73,22.73,0,0,0,5.16-.58,5.07,5.07,0,0,0,2.77-1.78,8.73,8.73,0,0,0,1.45-3.72q.45-2.43.95-7.23h4.38v16.86H187.78Z" transform="translate(-8.21 -125.84)"/><path class="cls-1" d="M246.38,161.85q0-3.81-1.45-4.72c-1-.6-3-.91-6.16-.91v-2.81c1,.06,2.24.09,3.56.09s2.51,0,3.55.08,2.23-.08,3.56-.08,2.42,0,3.47-.09l35.38,47.28V161.85q0-3.81-1.37-4.72c-.91-.6-3-.91-6.24-.91v-2.81q2.07.09,4.71.09c1.77,0,3.34,0,4.71.08s2.95-.08,4.72-.08,3.33,0,4.71-.09v2.81a31.58,31.58,0,0,0-3.81.17,4.71,4.71,0,0,0-2,.66,2.6,2.6,0,0,0-1,1.61,13.13,13.13,0,0,0-.29,3.19v48.76h-5.37l-36.54-48.27v40q0,3.79,1.41,4.71c.93.6,3,.91,6.2.91v2.81c-1.44-.06-3-.09-4.8-.09s-3.44,0-4.87-.08-3,.08-4.8.08-3.44,0-4.88.09V208c3.25,0,5.34-.31,6.24-.91s1.37-2.18,1.37-4.71Z" transform="translate(-8.21 -125.84)"/><path class="cls-1" d="M24.45,268.47a19.14,19.14,0,0,0,.16,2.94,2.61,2.61,0,0,0,.91,1.57,4.8,4.8,0,0,0,2.32.86,30.43,30.43,0,0,0,4.54.25v2.81c-1.71,0-3.64-.08-5.78-.08s-4.17,0-5.87-.08-3.64.08-5.79.08-4.16,0-5.87.08v-2.81a31.39,31.39,0,0,0,4.59-.25A4.83,4.83,0,0,0,16,273a2.49,2.49,0,0,0,.87-1.57,19.63,19.63,0,0,0,.17-3V228a18.62,18.62,0,0,0-.17-2.93,2.6,2.6,0,0,0-.87-1.57,4.43,4.43,0,0,0-2.31-.87,31.39,31.39,0,0,0-4.59-.25v-2.81c1.71.05,3.67.08,5.87.08s4.08,0,5.79.08c.66,0,2.39,0,5.2-.08q7.77-.08,10.42-.08a64.35,64.35,0,0,1,7.65.37,15.33,15.33,0,0,1,5.33,1.61,8.41,8.41,0,0,1,3.59,3.85,16.08,16.08,0,0,1,1.28,7.06q0,6.94-3.72,10.34T39.57,247q.82,1.32,2.69,4.13l4.5,6.82q2.66,4,4.59,6.82t2.85,4l.5.66A18.56,18.56,0,0,0,58,272.81a7.64,7.64,0,0,0,4.21,1.28v2.81c-.88,0-1.87-.08-3-.08s-2.1,0-3-.08-1.87.08-3,.08-2.17,0-3,.08q-2.57-4.12-5.54-8.8c-2-3.11-3.93-6.08-5.83-8.88S35.25,254,33.7,252s-2.61-3.08-3.22-3.3a8.89,8.89,0,0,0-2.44-.5c-.85-.05-2.05-.08-3.59-.08Zm0-23.14c.38,0,.81.1,1.28.12s1.36,0,2.68,0a69.79,69.79,0,0,0,7.07-.29,15.84,15.84,0,0,0,5.21-1.4,8.58,8.58,0,0,0,3.76-3.51,12.89,12.89,0,0,0,1.41-6.53q0-6.54-2.73-8.89c-1.82-1.57-4.94-2.35-9.34-2.35q-2.07,0-6.2.16l-3.14.08Z" transform="translate(-8.21 -125.84)"/><path class="cls-1" d="M63.71,273.93a33.08,33.08,0,0,0,4.59-.25,4.87,4.87,0,0,0,2.31-.83,2.47,2.47,0,0,0,.87-1.57,19.77,19.77,0,0,0,.16-3V228a18.9,18.9,0,0,0-.16-2.93,2.6,2.6,0,0,0-.87-1.57,4.46,4.46,0,0,0-2.31-.87,31.57,31.57,0,0,0-4.59-.25v-2.81h44.88v14.55h-4.38v-.17c-.22-3.08-.44-5.28-.66-6.57a5.79,5.79,0,0,0-1.28-3A5,5,0,0,0,99.33,223a42.38,42.38,0,0,0-6.28-.33h-14v22.81h6.45a34,34,0,0,0,4.71-.24,4.62,4.62,0,0,0,2.44-1,4.29,4.29,0,0,0,1.2-2.44,26.17,26.17,0,0,0,.33-4.79h3.64v19.84H94.21c-.11-.88-.22-2-.33-3.23a16,16,0,0,0-.29-2.68,2.52,2.52,0,0,0-1-1.45,6.15,6.15,0,0,0-2.44-.87,28.8,28.8,0,0,0-4.63-.29H79.08v24.88h14.8a22.2,22.2,0,0,0,5.16-.57,5.18,5.18,0,0,0,2.77-1.78,8.58,8.58,0,0,0,1.45-3.72q.45-2.44.95-7.23h4.38v16.86H63.71Z" transform="translate(-8.21 -125.84)"/><path class="cls-1" d="M115.53,274.09a31.39,31.39,0,0,0,4.59-.25,4.88,4.88,0,0,0,2.32-.82,2.53,2.53,0,0,0,.86-1.57,19.63,19.63,0,0,0,.17-3V228a18.62,18.62,0,0,0-.17-2.93,2.64,2.64,0,0,0-.86-1.57,4.47,4.47,0,0,0-2.32-.87,31.39,31.39,0,0,0-4.59-.25v-2.81c1.71.05,3.67.08,5.87.08s4.08,0,5.79.08,3.66-.08,5.87-.08,4.07,0,5.78-.08v2.81a31.32,31.32,0,0,0-4.58.25,4.88,4.88,0,0,0-2.32.82,2.49,2.49,0,0,0-.87,1.57,20,20,0,0,0-.16,3v45.38h14.63a24.35,24.35,0,0,0,5.16-.54,4.76,4.76,0,0,0,2.77-1.78,8.85,8.85,0,0,0,1.45-3.8c.3-1.65.62-4.08,1-7.27h4.38v16.78H115.53Z" transform="translate(-8.21 -125.84)"/><path class="cls-1" d="M194.14,244.58a47.53,47.53,0,0,1,5.91,2.44,21.36,21.36,0,0,1,4.55,3.1,13.14,13.14,0,0,1,3.18,4.38,14.59,14.59,0,0,1,1.16,6,16.71,16.71,0,0,1-1.86,8.22,14,14,0,0,1-5,5.25,22.44,22.44,0,0,1-7.15,2.73,43,43,0,0,1-8.64.82,49.16,49.16,0,0,1-9.26-.86,38.8,38.8,0,0,1-8.6-2.69v-15H174c.06.77.14,1.93.25,3.47a38.1,38.1,0,0,0,.54,5.21,8.89,8.89,0,0,0,1.57,3.55,7.55,7.55,0,0,0,3.84,2.56,22.7,22.7,0,0,0,7.19.91,16.92,16.92,0,0,0,10.09-2.89q4.05-2.89,4.05-8.68a10.34,10.34,0,0,0-1.2-5.12,11,11,0,0,0-3.14-3.56,21.68,21.68,0,0,0-4.18-2.35c-1.49-.64-3.33-1.31-5.54-2l-2-.66c-2.42-.88-4.44-1.69-6-2.44a19.45,19.45,0,0,1-4.38-2.77,11.7,11.7,0,0,1-3.14-4.09,13.54,13.54,0,0,1-1.16-5.91,15.49,15.49,0,0,1,1.49-7,13.3,13.3,0,0,1,4.13-5,18.32,18.32,0,0,1,6-2.89,26.29,26.29,0,0,1,7.19-1,47,47,0,0,1,8.43.75,49.2,49.2,0,0,1,8.6,2.4v13.55H202c-.11-.71-.19-1.6-.25-2.64a44.22,44.22,0,0,0-.57-4.51,7.48,7.48,0,0,0-1.49-3.18,7.68,7.68,0,0,0-3.51-2.36,18.8,18.8,0,0,0-6.25-.86,14.08,14.08,0,0,0-8.63,2.48c-2.24,1.65-3.35,4.21-3.35,7.68a9.5,9.5,0,0,0,1.65,5.79,11.6,11.6,0,0,0,5,3.64Z" transform="translate(-8.21 -125.84)"/><path class="cls-1" d="M266,234.25h-4.14a55.26,55.26,0,0,0-1.36-6.65,5.46,5.46,0,0,0-2.15-3.06,9.94,9.94,0,0,0-4.42-1.36,87.94,87.94,0,0,0-9-.33v45.62a10.45,10.45,0,0,0,.37,3.18,3,3,0,0,0,1.24,1.66,5.18,5.18,0,0,0,2.32.66c1,.08,2.44.12,4.42.12v2.81c-1.87,0-3.89-.08-6-.08q-4.89-.07-6-.08l-6,.08q-3.22,0-6,.08v-2.81c2,0,3.46,0,4.42-.12a5.18,5.18,0,0,0,2.32-.66,3,3,0,0,0,1.24-1.66,10.45,10.45,0,0,0,.37-3.18V222.85a86.75,86.75,0,0,0-8.88.33,10.08,10.08,0,0,0-4.51,1.4,5.79,5.79,0,0,0-2.23,3.1,43.76,43.76,0,0,0-1.32,6.57h-4.14V219.7H266Z" transform="translate(-8.21 -125.84)"/><path class="cls-1" d="M270,273.93a32.81,32.81,0,0,0,4.58-.25,4.87,4.87,0,0,0,2.32-.83,2.47,2.47,0,0,0,.87-1.57,19.77,19.77,0,0,0,.16-3V228a18.9,18.9,0,0,0-.16-2.93,2.6,2.6,0,0,0-.87-1.57,4.47,4.47,0,0,0-2.32-.87,31.32,31.32,0,0,0-4.58-.25v-2.81H314.9v14.55h-4.38v-.17c-.22-3.08-.44-5.28-.66-6.57a5.79,5.79,0,0,0-1.28-3,5,5,0,0,0-2.94-1.36,42.38,42.38,0,0,0-6.28-.33h-14v22.81h6.45a34,34,0,0,0,4.71-.24,4.62,4.62,0,0,0,2.44-1,4.29,4.29,0,0,0,1.2-2.44,26.17,26.17,0,0,0,.33-4.79h3.63v19.84h-3.63c-.11-.88-.22-2-.33-3.23a17.14,17.14,0,0,0-.29-2.68,2.52,2.52,0,0,0-1-1.45,6.15,6.15,0,0,0-2.44-.87,28.8,28.8,0,0,0-4.63-.29h-6.45v24.88h14.8a22.2,22.2,0,0,0,5.16-.57,5.18,5.18,0,0,0,2.77-1.78,8.71,8.71,0,0,0,1.45-3.72q.45-2.44.95-7.23h4.38v16.86H270Z" transform="translate(-8.21 -125.84)"/><path class="cls-1" d="M336.22,268.47a18.85,18.85,0,0,0,.17,2.94,2.56,2.56,0,0,0,.91,1.57,4.8,4.8,0,0,0,2.31.86,30.68,30.68,0,0,0,4.55.25v2.81c-1.71,0-3.64-.08-5.78-.08s-4.17,0-5.87-.08-3.64.08-5.79.08-4.16,0-5.87.08v-2.81a31.57,31.57,0,0,0,4.59-.25,4.88,4.88,0,0,0,2.31-.82,2.49,2.49,0,0,0,.87-1.57,19.63,19.63,0,0,0,.17-3V228a18.62,18.62,0,0,0-.17-2.93,2.6,2.6,0,0,0-.87-1.57,4.46,4.46,0,0,0-2.31-.87,31.57,31.57,0,0,0-4.59-.25v-2.81c1.71.05,3.67.08,5.87.08s4.08,0,5.79.08c.66,0,2.39,0,5.2-.08q7.77-.08,10.42-.08a64.05,64.05,0,0,1,7.64.37,15.39,15.39,0,0,1,5.34,1.61,8.41,8.41,0,0,1,3.59,3.85,16.08,16.08,0,0,1,1.28,7.06q0,6.94-3.72,10.34T351.35,247q.82,1.32,2.69,4.13l4.5,6.82q2.65,4,4.59,6.82c1.3,1.88,2.24,3.2,2.85,4l.5.66a18.89,18.89,0,0,0,3.3,3.43,7.71,7.71,0,0,0,4.22,1.28v2.81c-.88,0-1.87-.08-3-.08s-2.09,0-3-.08-1.87.08-3,.08-2.18,0-3.06.08q-2.55-4.12-5.53-8.8c-2-3.11-3.93-6.08-5.83-8.88S347,254,345.48,252s-2.62-3.08-3.22-3.3a9,9,0,0,0-2.44-.5c-.85-.05-2.05-.08-3.6-.08Zm0-23.14c.39,0,.82.1,1.29.12s1.36,0,2.68,0a69.79,69.79,0,0,0,7.07-.29,15.84,15.84,0,0,0,5.21-1.4,8.58,8.58,0,0,0,3.76-3.51,12.9,12.9,0,0,0,1.4-6.53q0-6.54-2.72-8.89c-1.82-1.57-4.94-2.35-9.34-2.35q-2.07,0-6.2.16l-3.15.08Z" transform="translate(-8.21 -125.84)"/></svg>
